<mxfile host="Electron" modified="2024-06-08T13:17:59.910Z" agent="Mozilla/5.0 (Windows NT 10.0; Win64; x64) AppleWebKit/537.36 (KHTML, like Gecko) draw.io/24.5.1 Chrome/124.0.6367.207 Electron/30.0.6 Safari/537.36" etag="aJbSYpX0FPgrPyfMDdcw" version="24.5.1" type="device">
  <diagram name="第 1 页" id="CGD43tuGKz4dLaSBed8U">
    <mxGraphModel dx="434" dy="255" grid="1" gridSize="1" guides="1" tooltips="1" connect="1" arrows="1" fold="1" page="1" pageScale="1" pageWidth="827" pageHeight="1169" math="0" shadow="0">
      <root>
        <mxCell id="0" />
        <mxCell id="1" parent="0" />
        <mxCell id="dafcKBR157rRY-0c37Ht-7" style="edgeStyle=orthogonalEdgeStyle;rounded=0;orthogonalLoop=1;jettySize=auto;html=1;entryX=1;entryY=0.5;entryDx=0;entryDy=0;" parent="1" source="dafcKBR157rRY-0c37Ht-2" target="dafcKBR157rRY-0c37Ht-4" edge="1">
          <mxGeometry relative="1" as="geometry" />
        </mxCell>
        <mxCell id="dafcKBR157rRY-0c37Ht-24" style="edgeStyle=orthogonalEdgeStyle;rounded=0;orthogonalLoop=1;jettySize=auto;html=1;entryX=0.5;entryY=0;entryDx=0;entryDy=0;" parent="1" source="dafcKBR157rRY-0c37Ht-2" target="dafcKBR157rRY-0c37Ht-22" edge="1">
          <mxGeometry relative="1" as="geometry" />
        </mxCell>
        <mxCell id="dafcKBR157rRY-0c37Ht-2" value="&lt;font color=&quot;#000033&quot;&gt;GD32F303核心板&lt;/font&gt;" style="rounded=1;whiteSpace=wrap;html=1;fillColor=#f5f5f5;fontColor=#333333;strokeColor=#000033;" parent="1" vertex="1">
          <mxGeometry x="320" y="160" width="80" height="40" as="geometry" />
        </mxCell>
        <mxCell id="dafcKBR157rRY-0c37Ht-3" value="&lt;font color=&quot;#000033&quot;&gt;电机驱动板&lt;/font&gt;" style="rounded=1;whiteSpace=wrap;html=1;fillColor=#f5f5f5;fontColor=#333333;strokeColor=#000033;" parent="1" vertex="1">
          <mxGeometry x="440" y="160" width="70" height="40" as="geometry" />
        </mxCell>
        <mxCell id="dafcKBR157rRY-0c37Ht-6" style="edgeStyle=orthogonalEdgeStyle;rounded=0;orthogonalLoop=1;jettySize=auto;html=1;" parent="1" source="dafcKBR157rRY-0c37Ht-4" edge="1">
          <mxGeometry relative="1" as="geometry">
            <mxPoint x="320" y="180" as="targetPoint" />
          </mxGeometry>
        </mxCell>
        <mxCell id="dafcKBR157rRY-0c37Ht-4" value="&lt;font color=&quot;#000033&quot;&gt;0.96寸OLED模块&lt;/font&gt;" style="rounded=1;whiteSpace=wrap;html=1;fillColor=#f5f5f5;fontColor=#333333;strokeColor=#000033;" parent="1" vertex="1">
          <mxGeometry x="230" y="160" width="60" height="40" as="geometry" />
        </mxCell>
        <mxCell id="dafcKBR157rRY-0c37Ht-8" value="IIC" style="text;html=1;align=center;verticalAlign=middle;whiteSpace=wrap;rounded=0;" parent="1" vertex="1">
          <mxGeometry x="285" y="160" width="40" height="20" as="geometry" />
        </mxCell>
        <mxCell id="dafcKBR157rRY-0c37Ht-9" value="SPI" style="text;html=1;align=center;verticalAlign=middle;whiteSpace=wrap;rounded=0;" parent="1" vertex="1">
          <mxGeometry x="400" y="150" width="40" height="20" as="geometry" />
        </mxCell>
        <mxCell id="dafcKBR157rRY-0c37Ht-14" value="" style="endArrow=classic;html=1;rounded=0;" parent="1" edge="1">
          <mxGeometry width="50" height="50" relative="1" as="geometry">
            <mxPoint x="400" y="170" as="sourcePoint" />
            <mxPoint x="440" y="170" as="targetPoint" />
          </mxGeometry>
        </mxCell>
        <mxCell id="dafcKBR157rRY-0c37Ht-15" value="" style="endArrow=classic;html=1;rounded=0;entryX=1;entryY=0.25;entryDx=0;entryDy=0;exitX=0;exitY=0.25;exitDx=0;exitDy=0;" parent="1" source="dafcKBR157rRY-0c37Ht-3" target="dafcKBR157rRY-0c37Ht-2" edge="1">
          <mxGeometry width="50" height="50" relative="1" as="geometry">
            <mxPoint x="445" y="140" as="sourcePoint" />
            <mxPoint x="505" y="140" as="targetPoint" />
          </mxGeometry>
        </mxCell>
        <mxCell id="dafcKBR157rRY-0c37Ht-20" value="" style="endArrow=classic;html=1;rounded=0;" parent="1" edge="1">
          <mxGeometry width="50" height="50" relative="1" as="geometry">
            <mxPoint x="400" y="185" as="sourcePoint" />
            <mxPoint x="440" y="185" as="targetPoint" />
          </mxGeometry>
        </mxCell>
        <mxCell id="dafcKBR157rRY-0c37Ht-21" value="PWM" style="text;html=1;align=center;verticalAlign=middle;whiteSpace=wrap;rounded=0;" parent="1" vertex="1">
          <mxGeometry x="400" y="185" width="40" height="20" as="geometry" />
        </mxCell>
        <mxCell id="dafcKBR157rRY-0c37Ht-23" style="edgeStyle=orthogonalEdgeStyle;rounded=0;orthogonalLoop=1;jettySize=auto;html=1;entryX=0.5;entryY=1;entryDx=0;entryDy=0;" parent="1" source="dafcKBR157rRY-0c37Ht-22" target="dafcKBR157rRY-0c37Ht-2" edge="1">
          <mxGeometry relative="1" as="geometry" />
        </mxCell>
        <mxCell id="dafcKBR157rRY-0c37Ht-22" value="&lt;font color=&quot;#000033&quot;&gt;AS5600磁编码器&lt;/font&gt;" style="rounded=1;whiteSpace=wrap;html=1;fillColor=#f5f5f5;fontColor=#333333;strokeColor=#000033;" parent="1" vertex="1">
          <mxGeometry x="330" y="233" width="60" height="54" as="geometry" />
        </mxCell>
        <mxCell id="dafcKBR157rRY-0c37Ht-25" value="IIC" style="text;html=1;align=center;verticalAlign=middle;whiteSpace=wrap;rounded=0;" parent="1" vertex="1">
          <mxGeometry x="352" y="204" width="40" height="20" as="geometry" />
        </mxCell>
        <mxCell id="HZIrPmKIbMRzgSVx-FmT-3" value="" style="group" vertex="1" connectable="0" parent="1">
          <mxGeometry x="441.75" y="218" width="66.5" height="66.5" as="geometry" />
        </mxCell>
        <mxCell id="HZIrPmKIbMRzgSVx-FmT-1" value="" style="ellipse;whiteSpace=wrap;html=1;aspect=fixed;fillColor=#f5f5f5;fontColor=#333333;strokeColor=#000033;" vertex="1" parent="HZIrPmKIbMRzgSVx-FmT-3">
          <mxGeometry width="66.5" height="66.5" as="geometry" />
        </mxCell>
        <mxCell id="HZIrPmKIbMRzgSVx-FmT-2" value="&lt;b&gt;&lt;font style=&quot;font-size: 14px;&quot; face=&quot;Times New Roman&quot;&gt;PMSM&lt;/font&gt;&lt;/b&gt;" style="ellipse;whiteSpace=wrap;html=1;aspect=fixed;" vertex="1" parent="HZIrPmKIbMRzgSVx-FmT-3">
          <mxGeometry x="4.25" y="4.25" width="58" height="58" as="geometry" />
        </mxCell>
        <mxCell id="HZIrPmKIbMRzgSVx-FmT-5" value="" style="endArrow=classic;html=1;rounded=0;" edge="1" parent="1">
          <mxGeometry width="50" height="50" relative="1" as="geometry">
            <mxPoint x="474.86" y="200" as="sourcePoint" />
            <mxPoint x="474.86" y="218" as="targetPoint" />
          </mxGeometry>
        </mxCell>
        <mxCell id="HZIrPmKIbMRzgSVx-FmT-8" value="" style="endArrow=classic;html=1;rounded=0;exitX=0.712;exitY=0.996;exitDx=0;exitDy=0;exitPerimeter=0;entryX=0.723;entryY=0.047;entryDx=0;entryDy=0;entryPerimeter=0;" edge="1" parent="1" source="dafcKBR157rRY-0c37Ht-3" target="HZIrPmKIbMRzgSVx-FmT-1">
          <mxGeometry width="50" height="50" relative="1" as="geometry">
            <mxPoint x="495.58000000000004" y="199.99999999999997" as="sourcePoint" />
            <mxPoint x="495.5485" y="225.52900000000002" as="targetPoint" />
          </mxGeometry>
        </mxCell>
        <mxCell id="HZIrPmKIbMRzgSVx-FmT-9" value="" style="endArrow=classic;html=1;rounded=0;exitX=0.712;exitY=0.996;exitDx=0;exitDy=0;exitPerimeter=0;entryX=0.723;entryY=0.047;entryDx=0;entryDy=0;entryPerimeter=0;" edge="1" parent="1">
          <mxGeometry width="50" height="50" relative="1" as="geometry">
            <mxPoint x="460" y="200" as="sourcePoint" />
            <mxPoint x="460" y="221" as="targetPoint" />
          </mxGeometry>
        </mxCell>
        <mxCell id="HZIrPmKIbMRzgSVx-FmT-12" value="&lt;font style=&quot;font-size: 8px;&quot;&gt;机械连接&lt;/font&gt;" style="text;html=1;align=center;verticalAlign=middle;whiteSpace=wrap;rounded=0;" vertex="1" parent="1">
          <mxGeometry x="388" y="234" width="56" height="20" as="geometry" />
        </mxCell>
        <mxCell id="HZIrPmKIbMRzgSVx-FmT-20" value="" style="endArrow=classic;html=1;rounded=0;entryX=-0.01;entryY=0.525;entryDx=0;entryDy=0;entryPerimeter=0;" edge="1" parent="1">
          <mxGeometry width="50" height="50" relative="1" as="geometry">
            <mxPoint x="390.67" y="253.04" as="sourcePoint" />
            <mxPoint x="441.75499999999994" y="252.95249999999996" as="targetPoint" />
          </mxGeometry>
        </mxCell>
        <mxCell id="HZIrPmKIbMRzgSVx-FmT-21" value="" style="endArrow=classic;html=1;rounded=0;" edge="1" parent="1">
          <mxGeometry width="50" height="50" relative="1" as="geometry">
            <mxPoint x="441" y="252.97" as="sourcePoint" />
            <mxPoint x="390" y="252.97" as="targetPoint" />
          </mxGeometry>
        </mxCell>
      </root>
    </mxGraphModel>
  </diagram>
</mxfile>
